<svg xmlns="http://www.w3.org/2000/svg" xmlns:xlink="http://www.w3.org/1999/xlink" version="1.1" x="0px" y="0px" viewBox="0 0 98 122.5" enable-background="new 0 0 98 98" xml:space="preserve"><path d="M65.516,26.762c-0.479-0.46-0.494-1.221-0.034-1.7c0.46-0.479,1.221-0.494,1.7-0.034l1.309,1.259l3.498-3.601  c0.463-0.476,1.224-0.487,1.7-0.025c0.476,0.463,0.487,1.224,0.025,1.7l-4.331,4.459c-0.236,0.243-0.549,0.365-0.863,0.365  c-0.3,0-0.6-0.111-0.833-0.335L65.516,26.762z M5.294,57.207v-4c0-1.062,0.864-1.926,1.926-1.926h0.603l1.842-8.07  c0.626-2.745,2.299-4.842,4.836-6.064l3.176-1.53c-1.485-1.688-2.389-3.9-2.389-6.32c0-5.284,4.299-9.582,9.582-9.582  s9.582,4.299,9.582,9.582c0,2.42-0.904,4.632-2.389,6.32l3.176,1.53c0.423,0.204,0.827,0.435,1.206,0.692l10.049-5.119V8.9  c0-1.989,1.618-3.606,3.606-3.606H89.1c1.989,0,3.606,1.618,3.606,3.606v33.705c0,1.989-1.618,3.606-3.606,3.606H50.101  c-1.989,0-3.606-1.618-3.606-3.606v-0.233l-5.757,3.739l1.18,5.169h0.603c1.062,0,1.926,0.864,1.926,1.926v4  c0,1.062-0.864,1.926-1.926,1.926H7.22C6.158,59.133,5.294,58.269,5.294,57.207z M42.042,53.685H7.698v3.044h34.344V53.685z   M48.899,8.9v23.507c0.56,0.2,1.055,0.59,1.375,1.143l0.121,0.21l6.432-3.714c-0.026-0.077-0.054-0.152-0.078-0.229l-1.053-0.128  c-1.179-0.144-2.068-1.148-2.068-2.336v-3.2c0-1.188,0.889-2.192,2.068-2.336l1.053-0.128c0.234-0.741,0.532-1.46,0.891-2.149  l-0.654-0.836c-0.732-0.935-0.651-2.274,0.189-3.114l2.263-2.263c0.84-0.84,2.179-0.921,3.114-0.189l0.835,0.654  c0.69-0.359,1.408-0.657,2.15-0.891l0.128-1.053C65.808,10.669,66.812,9.78,68,9.78h3.2c1.188,0,2.192,0.889,2.336,2.068  l0.128,1.053c0.741,0.234,1.46,0.532,2.15,0.891l0.835-0.654c0.935-0.732,2.274-0.651,3.114,0.189l2.263,2.263  c0.84,0.84,0.921,2.179,0.189,3.114l-0.654,0.835c0.359,0.689,0.657,1.408,0.891,2.149l1.053,0.128  c1.179,0.144,2.069,1.148,2.069,2.336v3.2c0,1.188-0.889,2.192-2.069,2.336l-1.053,0.128c-0.234,0.741-0.532,1.46-0.891,2.149  l0.654,0.835c0.732,0.935,0.651,2.274-0.189,3.114l-2.263,2.263c-0.84,0.84-2.179,0.921-3.114,0.189l-0.835-0.654  c-0.689,0.359-1.408,0.657-2.15,0.891l-0.128,1.053c-0.144,1.179-1.148,2.068-2.336,2.068H68c-1.188,0-2.192-0.889-2.336-2.068  l-0.128-1.053c-0.741-0.234-1.46-0.532-2.15-0.891l-0.835,0.654c-0.935,0.732-2.274,0.651-3.114-0.189l-2.263-2.263  c-0.84-0.84-0.921-2.179-0.189-3.114l0.101-0.129l-5.49,3.17l0.121,0.21c0.689,1.194,0.324,2.718-0.833,3.469l-1.987,1.29v1.794  c0,0.663,0.539,1.202,1.202,1.202H89.1c0.663,0,1.202-0.539,1.202-1.202V8.9c0-0.663-0.539-1.202-1.202-1.202H50.101  C49.438,7.698,48.899,8.237,48.899,8.9z M58.958,28.815l1.631-0.942c-0.16-0.682-0.248-1.391-0.248-2.121  c0-5.105,4.153-9.259,9.259-9.259c5.105,0,9.259,4.153,9.259,9.259c0,5.105-4.153,9.259-9.259,9.259  c-3.515,0-6.578-1.969-8.146-4.861l-1.573,0.908c0.073,0.134,0.149,0.267,0.228,0.398c0.257,0.427,0.224,0.969-0.083,1.361  l-1.119,1.43l2.198,2.198l1.43-1.119c0.392-0.307,0.934-0.341,1.361-0.083c0.943,0.568,1.961,0.99,3.027,1.254  c0.484,0.12,0.843,0.526,0.903,1.021l0.22,1.802h3.109l0.22-1.802c0.06-0.495,0.42-0.901,0.903-1.021  c1.067-0.265,2.085-0.687,3.026-1.254c0.427-0.258,0.969-0.224,1.361,0.083l1.43,1.119l2.198-2.198l-1.119-1.43  c-0.307-0.393-0.34-0.934-0.083-1.361c0.568-0.943,0.99-1.961,1.254-3.027c0.12-0.484,0.526-0.843,1.021-0.904l1.802-0.22v-3.109  l-1.802-0.22c-0.495-0.06-0.901-0.42-1.021-0.903c-0.265-1.067-0.687-2.085-1.254-3.026c-0.257-0.427-0.224-0.969,0.083-1.361  l1.119-1.43l-2.199-2.199l-1.43,1.119c-0.392,0.307-0.934,0.341-1.361,0.083c-0.943-0.568-1.961-0.99-3.026-1.254  c-0.484-0.12-0.843-0.526-0.904-1.021l-0.22-1.801h-3.109l-0.22,1.801c-0.06,0.495-0.42,0.901-0.903,1.021  c-1.066,0.265-2.084,0.687-3.027,1.254c-0.427,0.257-0.969,0.224-1.361-0.083l-1.43-1.119l-2.199,2.199l1.119,1.43  c0.307,0.393,0.34,0.934,0.083,1.361c-0.568,0.942-0.989,1.96-1.254,3.026c-0.12,0.484-0.526,0.843-1.021,0.904l-1.802,0.22v3.109  l1.802,0.22c0.495,0.06,0.901,0.42,1.021,0.903C58.887,28.559,58.921,28.688,58.958,28.815z M64.696,28.279l-1.158,0.668  c1.151,2.174,3.436,3.66,6.062,3.66c3.779,0,6.854-3.075,6.854-6.854c0-3.78-3.075-6.854-6.854-6.854  c-3.78,0-6.855,3.075-6.855,6.854c0,0.286,0.02,0.568,0.054,0.845l0.694-0.401c0.575-0.332,1.31-0.135,1.642,0.44  C65.468,27.212,65.271,27.947,64.696,28.279z M17.692,29.297c0,3.958,3.22,7.178,7.178,7.178c3.958,0,7.178-3.22,7.178-7.178  s-3.22-7.178-7.178-7.178C20.912,22.119,17.692,25.339,17.692,29.297z M10.289,51.281h29.163l-1.245-5.453  c-0.112-0.492,0.094-1.001,0.517-1.276l10.851-7.049c0.084-0.054,0.11-0.164,0.06-0.25l-1.444-2.502  c-0.049-0.086-0.158-0.118-0.247-0.073l-11.071,5.639c-0.424,0.216-0.936,0.162-1.306-0.14c-0.408-0.333-0.869-0.624-1.372-0.866  l-4.114-1.981c-1.501,0.977-3.291,1.548-5.212,1.548s-3.711-0.57-5.212-1.548l-4.114,1.981c-1.855,0.893-3.077,2.426-3.535,4.433  L10.289,51.281z M34.085,91.236c0.082,0.357-0.004,0.731-0.232,1.017c-0.228,0.286-0.574,0.453-0.94,0.453H6.496  c-0.366,0-0.712-0.167-0.94-0.453c-0.228-0.286-0.314-0.66-0.232-1.017l1.951-8.548c0.519-2.275,1.905-4.013,4.008-5.025  l2.271-1.093c-1.108-1.363-1.773-3.1-1.773-4.989c0-4.37,3.555-7.924,7.924-7.924s7.924,3.555,7.924,7.924  c0,1.889-0.666,3.626-1.773,4.989l2.271,1.093c2.102,1.012,3.488,2.75,4.008,5.025L34.085,91.236z M14.184,71.58  c0,3.044,2.476,5.52,5.52,5.52s5.52-2.476,5.52-5.52c0-3.044-2.476-5.52-5.52-5.52S14.184,68.536,14.184,71.58z M31.405,90.302  l-1.616-7.079c-0.351-1.537-1.287-2.711-2.707-3.394l-3.181-1.532c-1.218,0.764-2.657,1.208-4.198,1.208s-2.979-0.444-4.198-1.208  l-3.181,1.532c-1.42,0.684-2.356,1.858-2.707,3.394l-1.616,7.079H31.405z M63.38,91.236c0.082,0.357-0.004,0.731-0.232,1.017  c-0.228,0.286-0.574,0.453-0.94,0.453H35.792c-0.366,0-0.712-0.167-0.94-0.453c-0.228-0.286-0.314-0.66-0.232-1.017l1.951-8.548  c0.519-2.275,1.905-4.013,4.008-5.025l2.271-1.093c-1.108-1.363-1.774-3.1-1.774-4.989c0-4.37,3.555-7.924,7.925-7.924  c4.369,0,7.924,3.555,7.924,7.924c0,1.889-0.666,3.626-1.773,4.989l2.271,1.093c2.102,1.012,3.488,2.75,4.008,5.025L63.38,91.236z   M43.48,71.58c0,3.044,2.476,5.52,5.52,5.52c3.044,0,5.52-2.476,5.52-5.52c0-3.044-2.476-5.52-5.52-5.52  C45.956,66.06,43.48,68.536,43.48,71.58z M60.701,90.302l-1.616-7.079c-0.351-1.537-1.287-2.711-2.707-3.394l-3.181-1.532  c-1.218,0.764-2.657,1.208-4.198,1.208c-1.541,0-2.98-0.444-4.198-1.208l-3.181,1.532c-1.42,0.684-2.356,1.858-2.707,3.394  l-1.616,7.079H60.701z M92.444,92.253c-0.228,0.286-0.574,0.453-0.94,0.453H65.087c-0.366,0-0.712-0.167-0.94-0.453  c-0.228-0.286-0.314-0.66-0.232-1.017l1.951-8.548c0.519-2.275,1.905-4.013,4.008-5.025l2.271-1.093  c-1.108-1.363-1.773-3.1-1.773-4.989c0-4.37,3.555-7.924,7.924-7.924c4.369,0,7.924,3.555,7.924,7.924  c0,1.889-0.666,3.626-1.773,4.989l2.271,1.093c2.103,1.013,3.488,2.75,4.008,5.025l1.951,8.548  C92.757,91.593,92.672,91.967,92.444,92.253z M72.775,71.58c0,3.044,2.476,5.52,5.52,5.52c3.044,0,5.52-2.476,5.52-5.52  c0-3.044-2.476-5.52-5.52-5.52C75.252,66.06,72.775,68.536,72.775,71.58z M89.997,90.302l-1.616-7.079  c-0.351-1.537-1.287-2.71-2.707-3.394l-3.181-1.532c-1.218,0.764-2.657,1.208-4.198,1.208c-1.541,0-2.979-0.444-4.198-1.208  l-3.181,1.532c-1.42,0.684-2.356,1.858-2.707,3.394l-1.616,7.079H89.997z" fill="#ffffff"/></svg>